<svg xmlns="http://www.w3.org/2000/svg" xmlns:xlink="http://www.w3.org/1999/xlink" width="1695" height="1563" viewBox="0 0 1695 1563">
  <defs>
    <clipPath id="clip-Web_1920_1">
      <rect width="1695" height="1563"/>
    </clipPath>
  </defs>
  <g id="Web_1920_1" data-name="Web 1920 – 1" clip-path="url(#clip-Web_1920_1)">
    <rect width="1695" height="1563" fill="#fff"/>
    <g id="Rectangle_38" data-name="Rectangle 38" transform="translate(33 39)" fill="#fff" stroke="#707070" stroke-width="1">
      <rect width="1605" height="477" stroke="none"/>
      <rect x="0.5" y="0.5" width="1604" height="476" fill="none"/>
    </g>
    <g id="Rectangle_44" data-name="Rectangle 44" transform="translate(33 532)" fill="#fff" stroke="#707070" stroke-width="1">
      <rect width="1605" height="477" stroke="none"/>
      <rect x="0.5" y="0.5" width="1604" height="476" fill="none"/>
    </g>
    <g id="Rectangle_58" data-name="Rectangle 58" transform="translate(33 1045)" fill="#fff" stroke="#707070" stroke-width="1">
      <rect width="1605" height="477" stroke="none"/>
      <rect x="0.5" y="0.5" width="1604" height="476" fill="none"/>
    </g>
    <g id="Rectangle_26" data-name="Rectangle 26" transform="translate(71 82)" fill="#fff" stroke="#707070" stroke-width="1">
      <rect width="502" height="407" stroke="none"/>
      <rect x="0.5" y="0.5" width="501" height="406" fill="none"/>
    </g>
    <g id="Rectangle_45" data-name="Rectangle 45" transform="translate(71 575)" fill="#fff" stroke="#707070" stroke-width="1">
      <rect width="502" height="407" stroke="none"/>
      <rect x="0.5" y="0.5" width="501" height="406" fill="none"/>
    </g>
    <g id="Rectangle_61" data-name="Rectangle 61" transform="translate(71 1088)" fill="#fff" stroke="#707070" stroke-width="1">
      <rect width="502" height="407" stroke="none"/>
      <rect x="0.5" y="0.5" width="501" height="406" fill="none"/>
    </g>
    <path id="Path_2" data-name="Path 2" d="M104.707,626.584l82.005-134.522L225.2,440.653l16.016-15.646,11.544-5.871,6.335,3.758,5.8,11.543h0v16.532L262.6,469.533s-1.89,16.942-2.587,28.118,1.855,17.273,4.875,23.142a11.433,11.433,0,0,0,10.634,6.261c2.089,0,21.488-1.581,25.667-12.756s15.424-34.6,19.6-53.6S357.124,356.4,359.214,356.4h0l48.489-76.42H416.8s-4.325-4.51,0-5.21S425,277.185,425,277.185h0l20.245,11.477,21.245,32.033,11.949,62.161L497.81,488.663,511,551.486l18.13,65.468,16.3,23.405v3.9H95.393Z" transform="translate(-15 -155.484)" fill="#d6d6d6" opacity="0.78"/>
    <path id="Path_3" data-name="Path 3" d="M104.707,626.584l82.005-134.522L225.2,440.653l16.016-15.646,11.544-5.871,6.335,3.758,5.8,11.543h0v16.532L262.6,469.533s-1.89,16.942-2.587,28.118,1.855,17.273,4.875,23.142a11.433,11.433,0,0,0,10.634,6.261c2.089,0,21.488-1.581,25.667-12.756s15.424-34.6,19.6-53.6S357.124,356.4,359.214,356.4h0l48.489-76.42h0s4.769-4.51,9.094-5.21S425,277.185,425,277.185h0l20.245,11.477,21.245,32.033,11.949,62.161L497.81,488.663,511,551.486l18.13,65.468,16.3,23.405v3.9H95.393Z" transform="translate(-15 337.516)" fill="#d6d6d6" opacity="0.78"/>
    <path id="Path_4" data-name="Path 4" d="M104.707,626.584l82.005-134.522L225.2,440.653l16.016-15.646,11.544-5.871,6.335,3.758,5.8,11.543h0v16.532L262.6,469.533s-1.89,16.942-2.587,28.118,1.855,17.273,4.875,23.142a11.433,11.433,0,0,0,10.634,6.261c2.089,0,21.488-1.581,25.667-12.756s15.424-34.6,19.6-53.6S357.124,356.4,359.214,356.4h0l48.489-76.42h0s4.769-4.51,9.094-5.21S425,277.185,425,277.185h0l20.245,11.477,21.245,32.033,11.949,62.161L497.81,488.663,511,551.486l18.13,65.468,16.3,23.405v3.9H95.393Z" transform="translate(-15 850.516)" fill="#d6d6d6" opacity="0.78"/>
    <g id="Rectangle_36" data-name="Rectangle 36" transform="translate(661 79)" fill="#fff" stroke="#707070" stroke-width="0.4">
      <rect width="123" height="25" rx="4" stroke="none"/>
      <rect x="0.2" y="0.2" width="122.6" height="24.6" rx="3.8" fill="none"/>
    </g>
    <g id="Rectangle_56" data-name="Rectangle 56" transform="translate(661 572)" fill="#fff" stroke="#707070" stroke-width="0.4">
      <rect width="123" height="25" rx="4" stroke="none"/>
      <rect x="0.2" y="0.2" width="122.6" height="24.6" rx="3.8" fill="none"/>
    </g>
    <g id="Rectangle_70" data-name="Rectangle 70" transform="translate(661 1085)" fill="#fff" stroke="#707070" stroke-width="0.4">
      <rect width="123" height="25" rx="4" stroke="none"/>
      <rect x="0.2" y="0.2" width="122.6" height="24.6" rx="3.8" fill="none"/>
    </g>
    <rect id="Rectangle_37" data-name="Rectangle 37" width="103" height="7" rx="3.5" transform="translate(671 88)" fill="#ebe9e9"/>
    <rect id="Rectangle_57" data-name="Rectangle 57" width="103" height="7" rx="3.5" transform="translate(671 581)" fill="#ebe9e9"/>
    <rect id="Rectangle_71" data-name="Rectangle 71" width="103" height="7" rx="3.5" transform="translate(671 1094)" fill="#ebe9e9"/>
    <rect id="Rectangle_32" data-name="Rectangle 32" width="914" height="17" rx="4" transform="translate(661 137)" fill="#ebe9e9"/>
    <rect id="Rectangle_55" data-name="Rectangle 55" width="914" height="17" rx="4" transform="translate(661 630)" fill="#ebe9e9"/>
    <rect id="Rectangle_69" data-name="Rectangle 69" width="914" height="17" rx="4" transform="translate(661 1143)" fill="#ebe9e9"/>
    <rect id="Rectangle_33" data-name="Rectangle 33" width="523" height="17" rx="4" transform="translate(661 164)" fill="#ebe9e9"/>
    <rect id="Rectangle_54" data-name="Rectangle 54" width="523" height="17" rx="4" transform="translate(661 657)" fill="#ebe9e9"/>
    <rect id="Rectangle_68" data-name="Rectangle 68" width="523" height="17" rx="4" transform="translate(661 1170)" fill="#ebe9e9"/>
    <rect id="Rectangle_35" data-name="Rectangle 35" width="912" height="19" rx="4" transform="translate(663 210)" fill="#ebe9e9"/>
    <rect id="Rectangle_53" data-name="Rectangle 53" width="912" height="19" rx="4" transform="translate(663 703)" fill="#ebe9e9"/>
    <rect id="Rectangle_67" data-name="Rectangle 67" width="912" height="19" rx="4" transform="translate(663 1216)" fill="#ebe9e9"/>
    <rect id="Rectangle_39" data-name="Rectangle 39" width="912" height="19" rx="4" transform="translate(661 239)" fill="#ebe9e9"/>
    <rect id="Rectangle_52" data-name="Rectangle 52" width="912" height="19" rx="4" transform="translate(661 732)" fill="#ebe9e9"/>
    <rect id="Rectangle_66" data-name="Rectangle 66" width="912" height="19" rx="4" transform="translate(661 1245)" fill="#ebe9e9"/>
    <rect id="Rectangle_40" data-name="Rectangle 40" width="912" height="19" rx="4" transform="translate(661 268)" fill="#ebe9e9"/>
    <rect id="Rectangle_51" data-name="Rectangle 51" width="912" height="19" rx="4" transform="translate(661 761)" fill="#ebe9e9"/>
    <rect id="Rectangle_65" data-name="Rectangle 65" width="912" height="19" rx="4" transform="translate(661 1274)" fill="#ebe9e9"/>
    <rect id="Rectangle_41" data-name="Rectangle 41" width="912" height="19" rx="4" transform="translate(661 297)" fill="#ebe9e9"/>
    <rect id="Rectangle_50" data-name="Rectangle 50" width="912" height="19" rx="4" transform="translate(661 790)" fill="#ebe9e9"/>
    <rect id="Rectangle_64" data-name="Rectangle 64" width="912" height="19" rx="4" transform="translate(661 1303)" fill="#ebe9e9"/>
    <rect id="Rectangle_42" data-name="Rectangle 42" width="912" height="19" rx="4" transform="translate(661 326)" fill="#ebe9e9"/>
    <rect id="Rectangle_48" data-name="Rectangle 48" width="912" height="19" rx="4" transform="translate(661 819)" fill="#ebe9e9"/>
    <rect id="Rectangle_63" data-name="Rectangle 63" width="912" height="19" rx="4" transform="translate(661 1332)" fill="#ebe9e9"/>
    <rect id="Rectangle_43" data-name="Rectangle 43" width="912" height="19" rx="4" transform="translate(661 355)" fill="#ebe9e9"/>
    <rect id="Rectangle_49" data-name="Rectangle 49" width="912" height="19" rx="4" transform="translate(661 848)" fill="#ebe9e9"/>
    <rect id="Rectangle_62" data-name="Rectangle 62" width="912" height="19" rx="4" transform="translate(661 1361)" fill="#ebe9e9"/>
    <rect id="Rectangle_24" data-name="Rectangle 24" width="360" height="22" rx="4" transform="translate(661 460)" fill="#ebe9e9"/>
    <rect id="Rectangle_46" data-name="Rectangle 46" width="360" height="22" rx="4" transform="translate(661 953)" fill="#ebe9e9"/>
    <rect id="Rectangle_59" data-name="Rectangle 59" width="360" height="22" rx="4" transform="translate(661 1466)" fill="#ebe9e9"/>
    <rect id="Rectangle_25" data-name="Rectangle 25" width="484" height="22" rx="4" transform="translate(1089 460)" fill="#ebe9e9"/>
    <rect id="Rectangle_47" data-name="Rectangle 47" width="484" height="22" rx="4" transform="translate(1089 953)" fill="#ebe9e9"/>
    <rect id="Rectangle_60" data-name="Rectangle 60" width="484" height="22" rx="4" transform="translate(1089 1466)" fill="#ebe9e9"/>
  </g>
</svg>
