<svg xmlns="http://www.w3.org/2000/svg" xmlns:xlink="http://www.w3.org/1999/xlink" width="1695" height="1009" viewBox="0 0 1695 1009">
  <defs>
    <clipPath id="clip-Web_1920_1">
      <rect width="1695" height="1009"/>
    </clipPath>
  </defs>
  <g id="Web_1920_1" data-name="Web 1920 – 1" clip-path="url(#clip-Web_1920_1)">
    <rect width="1695" height="1009" fill="#fff"/>
    <g id="Rectangle_38" data-name="Rectangle 38" transform="translate(33 39)" fill="#fff" stroke="#707070" stroke-width="1">
      <rect width="779" height="899" stroke="none"/>
      <rect x="0.5" y="0.5" width="778" height="898" fill="none"/>
    </g>
    <g id="Rectangle_39" data-name="Rectangle 39" transform="translate(876 39)" fill="#fff" stroke="#707070" stroke-width="1">
      <rect width="779" height="899" stroke="none"/>
      <rect x="0.5" y="0.5" width="778" height="898" fill="none"/>
    </g>
    <g id="Rectangle_26" data-name="Rectangle 26" transform="translate(69 79)" fill="#fff" stroke="#707070" stroke-width="1">
      <rect width="691" height="407" stroke="none"/>
      <rect x="0.5" y="0.5" width="690" height="406" fill="none"/>
    </g>
    <g id="Rectangle_48" data-name="Rectangle 48" transform="translate(912 79)" fill="#fff" stroke="#707070" stroke-width="1">
      <rect width="691" height="407" stroke="none"/>
      <rect x="0.5" y="0.5" width="690" height="406" fill="none"/>
    </g>
    <path id="Path_2" data-name="Path 2" d="M108.817,626.584l118.19-134.522,55.467-51.409,23.084-15.646,16.637-5.871,9.131,3.758,8.355,11.543h0v16.532l-3.3,18.563s-2.724,16.942-3.728,28.118,2.674,17.273,7.025,23.142,12.316,6.261,15.327,6.261S385.978,525.473,392,514.3s22.229-34.6,28.251-53.6S472.613,356.4,475.624,356.4h0l69.884-76.42h0s6.873-4.51,13.107-5.21a22.175,22.175,0,0,1,11.828,2.411h0l29.178,11.477,30.619,32.033,17.222,62.161,27.912,105.807,19,62.823,26.13,65.468L744,640.359v3.9H95.393Z" transform="translate(-17 -158.484)" fill="#d6d6d6" opacity="0.78"/>
    <path id="Path_3" data-name="Path 3" d="M108.817,626.584l118.19-134.522,55.467-51.409,23.084-15.646,16.637-5.871,9.131,3.758,8.355,11.543h0v16.532l-3.3,18.563s-2.724,16.942-3.728,28.118,2.674,17.273,7.025,23.142,12.316,6.261,15.327,6.261S385.978,525.473,392,514.3s22.229-34.6,28.251-53.6S472.613,356.4,475.624,356.4h0l69.884-76.42h0s6.873-4.51,13.107-5.21a22.175,22.175,0,0,1,11.828,2.411h0l29.178,11.477,30.619,32.033,17.222,62.161,27.912,105.807,19,62.823,26.13,65.468L744,640.359v3.9H95.393Z" transform="translate(826 -158.484)" fill="#d6d6d6" opacity="0.78"/>
    <g id="Rectangle_36" data-name="Rectangle 36" transform="translate(80 511)" fill="#fff" stroke="#707070" stroke-width="0.4">
      <rect width="123" height="25" rx="4" stroke="none"/>
      <rect x="0.2" y="0.2" width="122.6" height="24.6" rx="3.8" fill="none"/>
    </g>
    <g id="Rectangle_50" data-name="Rectangle 50" transform="translate(923 511)" fill="#fff" stroke="#707070" stroke-width="0.4">
      <rect width="123" height="25" rx="4" stroke="none"/>
      <rect x="0.2" y="0.2" width="122.6" height="24.6" rx="3.8" fill="none"/>
    </g>
    <rect id="Rectangle_37" data-name="Rectangle 37" width="103" height="7" rx="3.5" transform="translate(90 520)" fill="#ebe9e9"/>
    <rect id="Rectangle_51" data-name="Rectangle 51" width="103" height="7" rx="3.5" transform="translate(933 520)" fill="#ebe9e9"/>
    <rect id="Rectangle_32" data-name="Rectangle 32" width="682" height="18" rx="4" transform="translate(78 565)" fill="#ebe9e9"/>
    <rect id="Rectangle_47" data-name="Rectangle 47" width="682" height="18" rx="4" transform="translate(921 565)" fill="#ebe9e9"/>
    <rect id="Rectangle_33" data-name="Rectangle 33" width="523" height="17" rx="4" transform="translate(78 593)" fill="#ebe9e9"/>
    <rect id="Rectangle_41" data-name="Rectangle 41" width="523" height="17" rx="4" transform="translate(921 593)" fill="#ebe9e9"/>
    <rect id="Rectangle_29" data-name="Rectangle 29" width="675" height="18" rx="4" transform="translate(78 759)" fill="#ebe9e9"/>
    <rect id="Rectangle_42" data-name="Rectangle 42" width="675" height="18" rx="4" transform="translate(921 759)" fill="#ebe9e9"/>
    <rect id="Rectangle_30" data-name="Rectangle 30" width="675" height="18" rx="4" transform="translate(80 703)" fill="#ebe9e9"/>
    <rect id="Rectangle_43" data-name="Rectangle 43" width="675" height="18" rx="4" transform="translate(923 703)" fill="#ebe9e9"/>
    <rect id="Rectangle_34" data-name="Rectangle 34" width="678" height="18" rx="4" transform="translate(78 671)" fill="#ebe9e9"/>
    <rect id="Rectangle_44" data-name="Rectangle 44" width="678" height="18" rx="4" transform="translate(921 671)" fill="#ebe9e9"/>
    <rect id="Rectangle_35" data-name="Rectangle 35" width="682" height="18" rx="4" transform="translate(78 639)" fill="#ebe9e9"/>
    <rect id="Rectangle_45" data-name="Rectangle 45" width="682" height="18" rx="4" transform="translate(921 639)" fill="#ebe9e9"/>
    <rect id="Rectangle_31" data-name="Rectangle 31" width="675" height="18" rx="4" transform="translate(78 731)" fill="#ebe9e9"/>
    <rect id="Rectangle_46" data-name="Rectangle 46" width="675" height="18" rx="4" transform="translate(921 731)" fill="#ebe9e9"/>
    <rect id="Rectangle_24" data-name="Rectangle 24" width="236" height="15" rx="4" transform="translate(78 846)" fill="#ebe9e9"/>
    <rect id="Rectangle_49" data-name="Rectangle 49" width="236" height="15" rx="4" transform="translate(921 846)" fill="#ebe9e9"/>
    <rect id="Rectangle_25" data-name="Rectangle 25" width="233" height="15" rx="4" transform="translate(515 846)" fill="#ebe9e9"/>
    <rect id="Rectangle_40" data-name="Rectangle 40" width="233" height="15" rx="4" transform="translate(1358 846)" fill="#ebe9e9"/>
  </g>
</svg>
