<svg xmlns="http://www.w3.org/2000/svg" xmlns:xlink="http://www.w3.org/1999/xlink" width="1771" height="1667" viewBox="0 0 1771 1667">
  <defs>
    <clipPath id="clip-Web_1920_1">
      <rect width="1771" height="1667"/>
    </clipPath>
  </defs>
  <g id="Web_1920_1" data-name="Web 1920 – 1" clip-path="url(#clip-Web_1920_1)">
    <rect width="1771" height="1667" fill="#fff"/>
    <g id="Rectangle_2" data-name="Rectangle 2" transform="translate(53 46)" fill="#fff" stroke="#707070" stroke-width="1">
      <rect width="1666" height="630" stroke="none"/>
      <rect x="0.5" y="0.5" width="1665" height="629" fill="none"/>
    </g>
    <g id="Rectangle_6" data-name="Rectangle 6" transform="translate(855 75)" fill="#fff" stroke="#707070" stroke-width="0.4">
      <rect width="123" height="25" rx="4" stroke="none"/>
      <rect x="0.2" y="0.2" width="122.6" height="24.6" rx="3.8" fill="none"/>
    </g>
    <rect id="Rectangle_7" data-name="Rectangle 7" width="759" height="17" rx="4" transform="translate(855 134)" fill="#ebe9e9"/>
    <rect id="Rectangle_16" data-name="Rectangle 16" width="315" height="17" rx="4" transform="translate(855 161)" fill="#ebe9e9"/>
    <rect id="Rectangle_8" data-name="Rectangle 8" width="103" height="7" rx="3.5" transform="translate(865 84)" fill="#ebe9e9"/>
    <g id="Rectangle_18" data-name="Rectangle 18" transform="translate(94 67)" fill="#fff" stroke="#707070" stroke-width="1">
      <rect width="647" height="565" stroke="none"/>
      <rect x="0.5" y="0.5" width="646" height="564" fill="none"/>
    </g>
    <path id="Path_1" data-name="Path 1" d="M106.727,653.671l99.785-144.876,46.83-55.366,19.489-16.85,14.047-6.323,7.709,4.048,7.054,12.431h0v17.8l-2.784,19.992s-2.3,18.246-3.147,30.282,2.257,18.6,5.931,24.924,10.4,6.743,12.94,6.743,26.148-1.7,31.232-13.738,18.768-37.264,23.852-57.725S413.873,362.7,416.415,362.7h0l59-82.3h0s5.8-4.857,11.066-5.611,9.987,2.6,9.987,2.6h0l24.635,12.36,25.851,34.5,14.54,66.946,23.565,113.951,16.044,67.658L623.167,643.3,643,668.506v4.2H95.393Z" transform="translate(41 -107.025)" fill="#d6d6d6" opacity="0.78"/>
    <rect id="Rectangle_13" data-name="Rectangle 13" width="763" height="18" rx="4" transform="translate(853 362)" fill="#ebe9e9"/>
    <rect id="Rectangle_23" data-name="Rectangle 23" width="763" height="18" rx="4" transform="translate(855 334)" fill="#ebe9e9"/>
    <rect id="Rectangle_19" data-name="Rectangle 19" width="763" height="18" rx="4" transform="translate(855 278)" fill="#ebe9e9"/>
    <rect id="Rectangle_21" data-name="Rectangle 21" width="763" height="18" rx="4" transform="translate(855 250)" fill="#ebe9e9"/>
    <rect id="Rectangle_22" data-name="Rectangle 22" width="763" height="18" rx="4" transform="translate(855 224)" fill="#ebe9e9"/>
    <rect id="Rectangle_20" data-name="Rectangle 20" width="763" height="18" rx="4" transform="translate(855 306)" fill="#ebe9e9"/>
    <rect id="Rectangle_15" data-name="Rectangle 15" width="447" height="17" rx="4" transform="translate(855 398)" fill="#ebe9e9"/>
    <rect id="Rectangle_10" data-name="Rectangle 10" width="296" height="15" rx="4" transform="translate(855 617)" fill="#ebe9e9"/>
    <rect id="Rectangle_17" data-name="Rectangle 17" width="296" height="15" rx="4" transform="translate(1322 617)" fill="#ebe9e9"/>
    <g id="Rectangle_38" data-name="Rectangle 38" transform="translate(53 700)" fill="#fff" stroke="#707070" stroke-width="1">
      <rect width="812" height="445" stroke="none"/>
      <rect x="0.5" y="0.5" width="811" height="444" fill="none"/>
    </g>
    <g id="Rectangle_52" data-name="Rectangle 52" transform="translate(53 1177)" fill="#fff" stroke="#707070" stroke-width="1">
      <rect width="812" height="445" stroke="none"/>
      <rect x="0.5" y="0.5" width="811" height="444" fill="none"/>
    </g>
    <g id="Rectangle_39" data-name="Rectangle 39" transform="translate(907 700)" fill="#fff" stroke="#707070" stroke-width="1">
      <rect width="812" height="445" stroke="none"/>
      <rect x="0.5" y="0.5" width="811" height="444" fill="none"/>
    </g>
    <g id="Rectangle_53" data-name="Rectangle 53" transform="translate(907 1177)" fill="#fff" stroke="#707070" stroke-width="1">
      <rect width="812" height="445" stroke="none"/>
      <rect x="0.5" y="0.5" width="811" height="444" fill="none"/>
    </g>
    <g id="Rectangle_26" data-name="Rectangle 26" transform="translate(94 718)" fill="#fff" stroke="#707070" stroke-width="1">
      <rect width="345" height="389" stroke="none"/>
      <rect x="0.5" y="0.5" width="344" height="388" fill="none"/>
    </g>
    <g id="Rectangle_55" data-name="Rectangle 55" transform="translate(94 1195)" fill="#fff" stroke="#707070" stroke-width="1">
      <rect width="345" height="389" stroke="none"/>
      <rect x="0.5" y="0.5" width="344" height="388" fill="none"/>
    </g>
    <g id="Rectangle_40" data-name="Rectangle 40" transform="translate(948 718)" fill="#fff" stroke="#707070" stroke-width="1">
      <rect width="345" height="389" stroke="none"/>
      <rect x="0.5" y="0.5" width="344" height="388" fill="none"/>
    </g>
    <g id="Rectangle_54" data-name="Rectangle 54" transform="translate(948 1195)" fill="#fff" stroke="#707070" stroke-width="1">
      <rect width="345" height="389" stroke="none"/>
      <rect x="0.5" y="0.5" width="344" height="388" fill="none"/>
    </g>
    <path id="Path_2" data-name="Path 2" d="M101.5,626.584l53.81-134.522,25.253-51.409,10.51-15.646,7.575-5.871,4.157,3.758,3.8,11.543h0v16.532l-1.5,18.563s-1.24,16.942-1.7,28.118,1.217,17.273,3.2,23.142,5.607,6.261,6.978,6.261,14.1-1.581,16.842-12.756,10.121-34.6,12.862-53.6S267.136,356.4,268.507,356.4h0l31.817-76.42h0s3.129-4.51,5.968-5.21,5.385,2.411,5.385,2.411h0l13.284,11.477L338.9,320.695l7.841,62.161,12.708,105.807,8.652,62.823L380,616.953l10.7,23.405v3.9H95.393Z" transform="translate(10 462.516)" fill="#d6d6d6" opacity="0.78"/>
    <path id="Path_5" data-name="Path 5" d="M101.5,626.584l53.81-134.522,25.253-51.409,10.51-15.646,7.575-5.871,4.157,3.758,3.8,11.543h0v16.532l-1.5,18.563s-1.24,16.942-1.7,28.118,1.217,17.273,3.2,23.142,5.607,6.261,6.978,6.261,14.1-1.581,16.842-12.756,10.121-34.6,12.862-53.6S267.136,356.4,268.507,356.4h0l31.817-76.42h0s3.129-4.51,5.968-5.21,5.385,2.411,5.385,2.411h0l13.284,11.477L338.9,320.695l7.841,62.161,12.708,105.807,8.652,62.823L380,616.953l10.7,23.405v3.9H95.393Z" transform="translate(10 939.516)" fill="#d6d6d6" opacity="0.78"/>
    <path id="Path_3" data-name="Path 3" d="M101.5,626.584l53.81-134.522,25.253-51.409,10.51-15.646,7.575-5.871,4.157,3.758,3.8,11.543h0v16.532l-1.5,18.563s-1.24,16.942-1.7,28.118,1.217,17.273,3.2,23.142,5.607,6.261,6.978,6.261,14.1-1.581,16.842-12.756,10.121-34.6,12.862-53.6S267.136,356.4,268.507,356.4h0l31.817-76.42h0s3.129-4.51,5.968-5.21,5.385,2.411,5.385,2.411h0l13.284,11.477L338.9,320.695l7.841,62.161,12.708,105.807,8.652,62.823L380,616.953l10.7,23.405v3.9H95.393Z" transform="translate(864 462.516)" fill="#d6d6d6" opacity="0.78"/>
    <path id="Path_4" data-name="Path 4" d="M101.5,626.584l53.81-134.522,25.253-51.409,10.51-15.646,7.575-5.871,4.157,3.758,3.8,11.543h0v16.532l-1.5,18.563s-1.24,16.942-1.7,28.118,1.217,17.273,3.2,23.142,5.607,6.261,6.978,6.261,14.1-1.581,16.842-12.756,10.121-34.6,12.862-53.6S267.136,356.4,268.507,356.4h0l31.817-76.42h0s3.129-4.51,5.968-5.21,5.385,2.411,5.385,2.411h0l13.284,11.477L338.9,320.695l7.841,62.161,12.708,105.807,8.652,62.823L380,616.953l10.7,23.405v3.9H95.393Z" transform="translate(864 939.516)" fill="#d6d6d6" opacity="0.78"/>
    <g id="Rectangle_36" data-name="Rectangle 36" transform="translate(473 721)" fill="#fff" stroke="#707070" stroke-width="0.4">
      <rect width="123" height="25" rx="4" stroke="none"/>
      <rect x="0.2" y="0.2" width="122.6" height="24.6" rx="3.8" fill="none"/>
    </g>
    <g id="Rectangle_74" data-name="Rectangle 74" transform="translate(473 1213)" fill="#fff" stroke="#707070" stroke-width="0.4">
      <rect width="123" height="25" rx="4" stroke="none"/>
      <rect x="0.2" y="0.2" width="122.6" height="24.6" rx="3.8" fill="none"/>
    </g>
    <g id="Rectangle_50" data-name="Rectangle 50" transform="translate(1327 721)" fill="#fff" stroke="#707070" stroke-width="0.4">
      <rect width="123" height="25" rx="4" stroke="none"/>
      <rect x="0.2" y="0.2" width="122.6" height="24.6" rx="3.8" fill="none"/>
    </g>
    <g id="Rectangle_75" data-name="Rectangle 75" transform="translate(1337 1211)" fill="#fff" stroke="#707070" stroke-width="0.4">
      <rect width="123" height="25" rx="4" stroke="none"/>
      <rect x="0.2" y="0.2" width="122.6" height="24.6" rx="3.8" fill="none"/>
    </g>
    <rect id="Rectangle_37" data-name="Rectangle 37" width="103" height="7" rx="3.5" transform="translate(483 730)" fill="#ebe9e9"/>
    <rect id="Rectangle_76" data-name="Rectangle 76" width="103" height="7" rx="3.5" transform="translate(483 1222)" fill="#ebe9e9"/>
    <rect id="Rectangle_51" data-name="Rectangle 51" width="103" height="7" rx="3.5" transform="translate(1337 730)" fill="#ebe9e9"/>
    <rect id="Rectangle_77" data-name="Rectangle 77" width="103" height="7" rx="3.5" transform="translate(1347 1220)" fill="#ebe9e9"/>
    <rect id="Rectangle_32" data-name="Rectangle 32" width="341" height="17" rx="4" transform="translate(473 777)" fill="#ebe9e9"/>
    <rect id="Rectangle_72" data-name="Rectangle 72" width="341" height="17" rx="4" transform="translate(473 1254)" fill="#ebe9e9"/>
    <rect id="Rectangle_47" data-name="Rectangle 47" width="341" height="17" rx="4" transform="translate(1327 777)" fill="#ebe9e9"/>
    <rect id="Rectangle_73" data-name="Rectangle 73" width="341" height="17" rx="4" transform="translate(1327 1254)" fill="#ebe9e9"/>
    <rect id="Rectangle_33" data-name="Rectangle 33" width="214" height="17" rx="4" transform="translate(473 804)" fill="#ebe9e9"/>
    <rect id="Rectangle_70" data-name="Rectangle 70" width="214" height="17" rx="4" transform="translate(473 1281)" fill="#ebe9e9"/>
    <rect id="Rectangle_48" data-name="Rectangle 48" width="214" height="17" rx="4" transform="translate(1327 804)" fill="#ebe9e9"/>
    <rect id="Rectangle_71" data-name="Rectangle 71" width="214" height="17" rx="4" transform="translate(1327 1281)" fill="#ebe9e9"/>
    <rect id="Rectangle_29" data-name="Rectangle 29" width="345" height="18" rx="4" transform="translate(473 975)" fill="#ebe9e9"/>
    <rect id="Rectangle_60" data-name="Rectangle 60" width="345" height="18" rx="4" transform="translate(473 1452)" fill="#ebe9e9"/>
    <rect id="Rectangle_41" data-name="Rectangle 41" width="345" height="18" rx="4" transform="translate(1327 975)" fill="#ebe9e9"/>
    <rect id="Rectangle_61" data-name="Rectangle 61" width="345" height="18" rx="4" transform="translate(1327 1452)" fill="#ebe9e9"/>
    <rect id="Rectangle_30" data-name="Rectangle 30" width="345" height="18" rx="4" transform="translate(473 919)" fill="#ebe9e9"/>
    <rect id="Rectangle_64" data-name="Rectangle 64" width="345" height="18" rx="4" transform="translate(473 1396)" fill="#ebe9e9"/>
    <rect id="Rectangle_45" data-name="Rectangle 45" width="345" height="18" rx="4" transform="translate(1327 919)" fill="#ebe9e9"/>
    <rect id="Rectangle_65" data-name="Rectangle 65" width="345" height="18" rx="4" transform="translate(1327 1396)" fill="#ebe9e9"/>
    <rect id="Rectangle_34" data-name="Rectangle 34" width="345" height="18" rx="4" transform="translate(473 892)" fill="#ebe9e9"/>
    <rect id="Rectangle_66" data-name="Rectangle 66" width="345" height="18" rx="4" transform="translate(473 1369)" fill="#ebe9e9"/>
    <rect id="Rectangle_46" data-name="Rectangle 46" width="345" height="18" rx="4" transform="translate(1327 892)" fill="#ebe9e9"/>
    <rect id="Rectangle_67" data-name="Rectangle 67" width="345" height="18" rx="4" transform="translate(1327 1369)" fill="#ebe9e9"/>
    <rect id="Rectangle_35" data-name="Rectangle 35" width="345" height="18" rx="4" transform="translate(473 866)" fill="#ebe9e9"/>
    <rect id="Rectangle_68" data-name="Rectangle 68" width="345" height="18" rx="4" transform="translate(473 1343)" fill="#ebe9e9"/>
    <rect id="Rectangle_49" data-name="Rectangle 49" width="345" height="18" rx="4" transform="translate(1327 866)" fill="#ebe9e9"/>
    <rect id="Rectangle_69" data-name="Rectangle 69" width="345" height="18" rx="4" transform="translate(1327 1343)" fill="#ebe9e9"/>
    <rect id="Rectangle_31" data-name="Rectangle 31" width="345" height="18" rx="4" transform="translate(473 947)" fill="#ebe9e9"/>
    <rect id="Rectangle_62" data-name="Rectangle 62" width="345" height="18" rx="4" transform="translate(473 1424)" fill="#ebe9e9"/>
    <rect id="Rectangle_42" data-name="Rectangle 42" width="345" height="18" rx="4" transform="translate(1327 947)" fill="#ebe9e9"/>
    <rect id="Rectangle_63" data-name="Rectangle 63" width="345" height="18" rx="4" transform="translate(1327 1424)" fill="#ebe9e9"/>
    <rect id="Rectangle_24" data-name="Rectangle 24" width="135" height="15" rx="4" transform="translate(473 1064)" fill="#ebe9e9"/>
    <rect id="Rectangle_56" data-name="Rectangle 56" width="135" height="15" rx="4" transform="translate(473 1541)" fill="#ebe9e9"/>
    <rect id="Rectangle_43" data-name="Rectangle 43" width="135" height="15" rx="4" transform="translate(1327 1064)" fill="#ebe9e9"/>
    <rect id="Rectangle_57" data-name="Rectangle 57" width="135" height="15" rx="4" transform="translate(1327 1541)" fill="#ebe9e9"/>
    <rect id="Rectangle_25" data-name="Rectangle 25" width="168" height="15" rx="4" transform="translate(650 1064)" fill="#ebe9e9"/>
    <rect id="Rectangle_58" data-name="Rectangle 58" width="168" height="15" rx="4" transform="translate(650 1541)" fill="#ebe9e9"/>
    <rect id="Rectangle_44" data-name="Rectangle 44" width="168" height="15" rx="4" transform="translate(1504 1064)" fill="#ebe9e9"/>
    <rect id="Rectangle_59" data-name="Rectangle 59" width="168" height="15" rx="4" transform="translate(1504 1541)" fill="#ebe9e9"/>
  </g>
</svg>
