<svg xmlns="http://www.w3.org/2000/svg" xmlns:xlink="http://www.w3.org/1999/xlink" width="1771" height="1110" viewBox="0 0 1771 1110">
  <defs>
    <clipPath id="clip-Web_1920_1">
      <rect width="1771" height="1110"/>
    </clipPath>
  </defs>
  <g id="Web_1920_1" data-name="Web 1920 – 1" clip-path="url(#clip-Web_1920_1)">
    <rect width="1771" height="1110" fill="#fff"/>
    <g id="Rectangle_1" data-name="Rectangle 1" transform="translate(1059 19)" fill="#fff" stroke="#707070" stroke-width="1">
      <rect width="671" height="521" stroke="none"/>
      <rect x="0.5" y="0.5" width="670" height="520" fill="none"/>
    </g>
    <g id="Rectangle_31" data-name="Rectangle 31" transform="translate(1062 559)" fill="#fff" stroke="#707070" stroke-width="1">
      <rect width="671" height="521" stroke="none"/>
      <rect x="0.5" y="0.5" width="670" height="520" fill="none"/>
    </g>
    <g id="Rectangle_2" data-name="Rectangle 2" transform="translate(33 19)" fill="#fff" stroke="#707070" stroke-width="1">
      <rect width="984" height="1061" stroke="none"/>
      <rect x="0.5" y="0.5" width="983" height="1060" fill="none"/>
    </g>
    <rect id="Rectangle_4" data-name="Rectangle 4" width="838" height="663" transform="translate(106 131)" fill="#fff"/>
    <path id="Path_1" data-name="Path 1" d="M115.708,1004.487,294.566,725.508,378.5,618.893l34.933-32.448,25.178-12.177,13.817,7.794L465.076,606h0v34.285l-4.99,38.5s-4.123,35.135-5.642,58.312,4.046,35.822,10.632,47.994,18.638,12.984,23.194,12.984,46.868-3.278,55.981-26.455S577.891,699.863,587,660.462s79.239-216.289,83.8-216.289h0L776.556,285.689h0s10.4-9.353,19.835-10.8,17.9,5,17.9,5h0l44.155,23.8,46.336,66.431L930.845,499.03l42.239,219.428,28.758,130.285,39.543,135.771,35.549,48.539v8.1H95.393Z" transform="translate(-62 41.191)" fill="#d6d6d6" opacity="0.78"/>
    <path id="Path_2" data-name="Path 2" d="M109.168,592.664,230.439,472.887l56.914-45.774,23.685-13.931,17.071-5.228,9.369,3.346,8.573,10.278h0V436.3l-3.384,16.529s-2.8,15.085-3.825,25.036,2.743,15.38,7.209,20.606,12.637,5.574,15.726,5.574,31.778-1.407,37.957-11.358,22.809-30.808,28.988-47.724S482.45,352.1,485.539,352.1h0L555.1,282.826h28.835l28.835,8.956L644.189,320.3l17.671,55.348L690.5,469.86,710,525.8l26.812,58.292,24.1,20.84V608.4H95.393Z" transform="translate(966.299 -68.404)" fill="#d6d6d6" opacity="0.76"/>
    <path id="Path_3" data-name="Path 3" d="M109.168,592.664,230.439,472.887l56.914-45.774,23.685-13.931,17.071-5.228,9.369,3.346,8.573,10.278h0V436.3l-3.384,16.529s-2.8,15.085-3.825,25.036,2.743,15.38,7.209,20.606,12.637,5.574,15.726,5.574,31.778-1.407,37.957-11.358,22.809-30.808,28.988-47.724S482.45,352.1,485.539,352.1h0L555.1,282.826h28.835l28.835,8.956L644.189,320.3l17.671,55.348L690.5,469.86,710,525.8l26.812,58.292,24.1,20.84V608.4H95.393Z" transform="translate(969.299 471.596)" fill="#d6d6d6" opacity="0.76"/>
    <g id="Rectangle_5" data-name="Rectangle 5" transform="translate(133 739)" fill="#fff" stroke="#707070" stroke-width="0.4">
      <rect width="798" height="341" rx="24" stroke="none"/>
      <rect x="0.2" y="0.2" width="797.6" height="340.6" rx="23.8" fill="none"/>
    </g>
    <g id="Rectangle_18" data-name="Rectangle 18" transform="translate(1124 333)" fill="#fff" stroke="#707070" stroke-width="0.4">
      <rect width="559" height="207" rx="24" stroke="none"/>
      <rect x="0.2" y="0.2" width="558.6" height="206.6" rx="23.8" fill="none"/>
    </g>
    <g id="Rectangle_32" data-name="Rectangle 32" transform="translate(1127 873)" fill="#fff" stroke="#707070" stroke-width="0.4">
      <rect width="559" height="207" rx="24" stroke="none"/>
      <rect x="0.2" y="0.2" width="558.6" height="206.6" rx="23.8" fill="none"/>
    </g>
    <g id="Rectangle_6" data-name="Rectangle 6" transform="translate(161 714)" fill="#fff" stroke="#707070" stroke-width="0.4">
      <rect width="123" height="25" rx="4" stroke="none"/>
      <rect x="0.2" y="0.2" width="122.6" height="24.6" rx="3.8" fill="none"/>
    </g>
    <g id="Rectangle_19" data-name="Rectangle 19" transform="translate(1149 309)" fill="#fff" stroke="#707070" stroke-width="0.4">
      <rect width="123" height="25" rx="4" stroke="none"/>
      <rect x="0.2" y="0.2" width="122.6" height="24.6" rx="3.8" fill="none"/>
    </g>
    <g id="Rectangle_42" data-name="Rectangle 42" transform="translate(1152 849)" fill="#fff" stroke="#707070" stroke-width="0.4">
      <rect width="123" height="25" rx="4" stroke="none"/>
      <rect x="0.2" y="0.2" width="122.6" height="24.6" rx="3.8" fill="none"/>
    </g>
    <rect id="Rectangle_7" data-name="Rectangle 7" width="740" height="16" rx="4" transform="translate(166 775)" fill="#ebe9e9"/>
    <rect id="Rectangle_20" data-name="Rectangle 20" width="501" height="16" rx="4" transform="translate(1141 353)" fill="#ebe9e9"/>
    <rect id="Rectangle_43" data-name="Rectangle 43" width="501" height="16" rx="4" transform="translate(1144 893)" fill="#ebe9e9"/>
    <rect id="Rectangle_9" data-name="Rectangle 9" width="740" height="8" rx="4" transform="translate(166 836)" fill="#ebe9e9"/>
    <rect id="Rectangle_23" data-name="Rectangle 23" width="501" height="8" rx="4" transform="translate(1141 422)" fill="#ebe9e9"/>
    <rect id="Rectangle_34" data-name="Rectangle 34" width="501" height="8" rx="4" transform="translate(1144 962)" fill="#ebe9e9"/>
    <rect id="Rectangle_11" data-name="Rectangle 11" width="740" height="8" rx="4" transform="translate(166 868)" fill="#ebe9e9"/>
    <rect id="Rectangle_25" data-name="Rectangle 25" width="501" height="8" rx="4" transform="translate(1141 450)" fill="#ebe9e9"/>
    <rect id="Rectangle_35" data-name="Rectangle 35" width="501" height="8" rx="4" transform="translate(1144 990)" fill="#ebe9e9"/>
    <rect id="Rectangle_13" data-name="Rectangle 13" width="740" height="8" rx="4" transform="translate(166 900)" fill="#ebe9e9"/>
    <rect id="Rectangle_27" data-name="Rectangle 27" width="501" height="8" rx="4" transform="translate(1141 478)" fill="#ebe9e9"/>
    <rect id="Rectangle_36" data-name="Rectangle 36" width="501" height="8" rx="4" transform="translate(1144 1018)" fill="#ebe9e9"/>
    <rect id="Rectangle_15" data-name="Rectangle 15" width="447" height="7" rx="3.5" transform="translate(166 916)" fill="#ebe9e9"/>
    <rect id="Rectangle_28" data-name="Rectangle 28" width="447" height="7" rx="3.5" transform="translate(1141 492)" fill="#ebe9e9"/>
    <rect id="Rectangle_37" data-name="Rectangle 37" width="447" height="7" rx="3.5" transform="translate(1144 1032)" fill="#ebe9e9"/>
    <rect id="Rectangle_14" data-name="Rectangle 14" width="740" height="8" rx="4" transform="translate(166 884)" fill="#ebe9e9"/>
    <rect id="Rectangle_26" data-name="Rectangle 26" width="501" height="8" rx="4" transform="translate(1141 464)" fill="#ebe9e9"/>
    <rect id="Rectangle_38" data-name="Rectangle 38" width="501" height="8" rx="4" transform="translate(1144 1004)" fill="#ebe9e9"/>
    <rect id="Rectangle_12" data-name="Rectangle 12" width="740" height="8" rx="4" transform="translate(166 852)" fill="#ebe9e9"/>
    <rect id="Rectangle_24" data-name="Rectangle 24" width="501" height="8" rx="4" transform="translate(1141 436)" fill="#ebe9e9"/>
    <rect id="Rectangle_39" data-name="Rectangle 39" width="501" height="8" rx="4" transform="translate(1144 976)" fill="#ebe9e9"/>
    <rect id="Rectangle_10" data-name="Rectangle 10" width="296" height="15" rx="4" transform="translate(166 1015)" fill="#ebe9e9"/>
    <rect id="Rectangle_29" data-name="Rectangle 29" width="195" height="15" rx="4" transform="translate(1144 518)" fill="#ebe9e9"/>
    <rect id="Rectangle_40" data-name="Rectangle 40" width="195" height="15" rx="4" transform="translate(1147 1058)" fill="#ebe9e9"/>
    <rect id="Rectangle_17" data-name="Rectangle 17" width="296" height="15" rx="4" transform="translate(610 1015)" fill="#ebe9e9"/>
    <rect id="Rectangle_30" data-name="Rectangle 30" width="184" height="15" rx="4" transform="translate(1467 518)" fill="#ebe9e9"/>
    <rect id="Rectangle_33" data-name="Rectangle 33" width="184" height="15" rx="4" transform="translate(1470 1058)" fill="#ebe9e9"/>
    <rect id="Rectangle_16" data-name="Rectangle 16" width="296" height="15" rx="4" transform="translate(166 806)" fill="#ebe9e9"/>
    <rect id="Rectangle_22" data-name="Rectangle 22" width="296" height="15" rx="4" transform="translate(1141 388)" fill="#ebe9e9"/>
    <rect id="Rectangle_41" data-name="Rectangle 41" width="296" height="15" rx="4" transform="translate(1144 928)" fill="#ebe9e9"/>
    <rect id="Rectangle_8" data-name="Rectangle 8" width="103" height="7" rx="3.5" transform="translate(172 722)" fill="#ebe9e9"/>
    <rect id="Rectangle_21" data-name="Rectangle 21" width="103" height="7" rx="3.5" transform="translate(1160 317)" fill="#ebe9e9"/>
    <rect id="Rectangle_44" data-name="Rectangle 44" width="103" height="7" rx="3.5" transform="translate(1163 857)" fill="#ebe9e9"/>
  </g>
</svg>
